<?xml version="1.0" encoding="iso-8859-1"?>
<svg fill="currentColor" height="100px" width="100px" version="1.1" xmlns="http://www.w3.org/2000/svg" viewBox="0 0 247.582 247.582" xml:space="preserve">
<g>
	<path d="M127.581,91.404c0-35.162-28.523-63.769-63.686-63.769S0,56.242,0,91.404c0,31.068,22.666,57.003,51.666,62.625v27.99
		l-8.184-7.057l-13.471,16.039l34.295,28.945l35.335-28.831l-13.437-16.268l-9.537,7.658v-28.674
		C105.666,147.804,127.581,122.105,127.581,91.404z M25.208,91.404c0-21.377,17.392-38.769,38.77-38.769s38.77,17.392,38.77,38.769
		c0,21.378-17.392,38.77-38.77,38.77S25.208,112.782,25.208,91.404z"/>
</g>
</svg>
