<?xml version="1.0" encoding="iso-8859-1"?>
<svg fill="currentColor" height="100px" width="100px" version="1.1" xmlns="http://www.w3.org/2000/svg" viewBox="0 0 247.582 247.582" xml:space="preserve">
<g>
	<path d="M196.666,93.047V76.445h10v-21h-10v-15h-25v15h-11v21h11v16.424c-29,5.64-51.581,31.564-51.581,62.617
		c0,35.162,28.69,63.769,63.852,63.769c35.163,0,63.645-28.606,63.645-63.769C247.582,124.769,225.666,99.059,196.666,93.047z
		 M184.021,194.254c-21.377,0-38.769-17.392-38.769-38.769c0-21.378,17.392-38.77,38.769-38.77c21.378,0,38.77,17.392,38.77,38.77
		C222.79,176.863,205.399,194.254,184.021,194.254z"/>
</g>
</svg>
